<?xml version="1.0" encoding="utf-8"?>
<!-- Generator: Adobe Illustrator 25.1.0, SVG Export Plug-In . SVG Version: 6.00 Build 0)  -->
<svg version="1.1" id="Layer_1" xmlns="http://www.w3.org/2000/svg" xmlns:xlink="http://www.w3.org/1999/xlink" x="0px" y="0px"
	 viewBox="0 0 209.2 50.1" style="enable-background:new 0 0 209.2 50.1;" xml:space="preserve">
<style type="text/css">
	.st0{fill:#FFFFFF;}
</style>
<g id="Layer_2_1_">
	<g id="logo">
		<path class="st0" d="M68.1,26.1c0-10.1,7.4-17.9,17.7-17.9s17.7,7.8,17.7,17.9S96.3,44,85.9,44S68.1,36.2,68.1,26.1z M98.7,26.1
			c0-7.5-5-13.6-12.8-13.6s-12.8,6.1-12.8,13.6s5,13.6,12.8,13.6S98.7,33.6,98.7,26.1z"/>
		<path class="st0" d="M134,16.5c-2-2.5-5-3.9-8.2-3.9c-7.6,0-12.7,6.1-12.7,13.8c0,7.2,4.8,13.3,12.7,13.3c3.5,0.1,6.9-1.6,8.9-4.6
			l3.9,2.9c-3.1,3.9-7.9,6.1-12.9,6c-10.8,0-17.5-9-17.5-17.6c0-10.6,7.3-18.2,17.7-18.2c4.5,0,9.2,1.7,11.9,5.3L134,16.5z"/>
		<path class="st0" d="M144.1,9.1h4.6v14.1h17.6V9.1h4.6v34h-4.6V27.6h-17.7v15.6h-4.6V9.1z"/>
		<path class="st0" d="M190.4,9.1h4.2l14.6,34h-5.4l-3.4-8.4h-16.2l-3.4,8.4h-5.4L190.4,9.1z M198.7,30.7l-6.3-15.6h-0.1l-6.4,15.6
			H198.7z"/>
		<path class="st0" d="M24.6,20.8c0-2.6,2.1-4.7,4.7-4.7c0,0,0,0,0,0l0,0c2.6,0,4.7,2.1,4.7,4.7l0,0c0,2.6-2.1,4.7-4.7,4.7l0,0v-0.6
			c2.3,0,4.1-1.8,4.1-4.1c0,0,0,0,0,0l0,0c0-2.3-1.8-4.1-4.1-4.1c0,0,0,0,0,0l0,0c-2.3,0-4.1,1.8-4.1,4.1c0,0,0,0,0,0l0,0
			c0,2.3,1.8,4.1,4.1,4.1c0,0,0,0,0,0l0,0v0.6C26.7,25.5,24.6,23.4,24.6,20.8C24.6,20.8,24.6,20.8,24.6,20.8L24.6,20.8z"/>
		<path class="st0" d="M20.9,20.8c0-4.7,3.8-8.5,8.5-8.5l0,0c4.7,0,8.5,3.8,8.5,8.5l0,0c0,4.7-3.8,8.5-8.5,8.5l0,0v-0.6
			c4.3,0,7.9-3.5,7.9-7.9l0,0c0-4.3-3.5-7.9-7.9-7.9l0,0c-4.3,0-7.9,3.5-7.9,7.9l0,0c0,4.3,3.5,7.9,7.9,7.9l0,0v0.6
			C24.6,29.2,20.9,25.5,20.9,20.8z"/>
		<path class="st0" d="M16.8,20.8c0-6.9,5.6-12.5,12.5-12.5c0,0,0,0,0,0l0,0c6.9,0,12.5,5.6,12.5,12.5l0,0l0,0
			c0,6.9-5.6,12.5-12.5,12.5l0,0v-0.6c6.6,0,11.9-5.4,11.9-11.9l0,0c0-6.6-5.3-12-11.9-12l0,0c-6.6,0-12,5.4-12,12l0,0
			c0,6.6,5.4,11.9,12,11.9l0,0v0.6C22.4,33.4,16.8,27.8,16.8,20.8C16.8,20.8,16.8,20.8,16.8,20.8z"/>
		<path class="st0" d="M12.9,20.8c0-9.1,7.4-16.4,16.4-16.5c0,0,0,0,0,0l0,0c9.1,0,16.5,7.4,16.5,16.4c0,0,0,0,0,0l0,0
			c0,9.1-7.4,16.5-16.5,16.5c0,0,0,0,0,0l0,0v-0.6c8.8,0,15.8-7.1,15.9-15.9l0,0c0-8.8-7.1-15.9-15.9-15.9l0,0
			c-8.8,0-15.9,7.1-15.9,15.9l0,0c0,8.8,7.1,15.8,15.9,15.9l0,0v0.6C20.2,37.2,12.9,29.9,12.9,20.8C12.9,20.8,12.9,20.8,12.9,20.8z"
			/>
		<path class="st0" d="M8.6,20.8C8.6,9.3,17.8,0,29.3,0l0,0c11.5,0,20.8,9.3,20.8,20.8l0,0c0,11.5-9.3,20.8-20.8,20.8l0,0V41
			c11.2,0,20.2-9.1,20.2-20.2c0,0,0,0,0,0l0,0c0-11.1-9-20.2-20.2-20.2l0,0C18.2,0.6,9.2,9.6,9.1,20.8l0,0c0,11.2,9,20.2,20.2,20.2
			c0,0,0,0,0,0l0,0v0.6C17.8,41.6,8.5,32.3,8.6,20.8C8.5,20.8,8.5,20.8,8.6,20.8z"/>
		<polygon class="st0" points="29,16.4 29,0.3 29.6,0.3 29.6,16.4 29,16.4 		"/>
		<polygon class="st0" points="14.6,6.5 15.1,6.1 26.4,17.5 26,17.9 14.6,6.5 		"/>
		<polygon class="st0" points="8.8,21.1 8.8,20.5 24.9,20.5 24.9,21.1 8.8,21.1 		"/>
		<polygon class="st0" points="14.6,35 26,23.7 26.4,24.1 15.1,35.5 14.6,35 		"/>
		<polygon class="st0" points="29,41.2 29,25.2 29.6,25.2 29.6,41.2 29,41.2 		"/>
		<polygon class="st0" points="32.2,24.1 32.7,23.7 44,35 43.6,35.5 32.2,24.1 		"/>
		<polygon class="st0" points="33.7,21.1 33.7,20.5 49.8,20.5 49.8,21.1 33.7,21.1 		"/>
		<polygon class="st0" points="32.2,17.5 43.6,6.1 44,6.5 32.7,17.9 32.2,17.5 		"/>
		<path class="st0" d="M26.2,22.1c0.2,0,0.1,0.1,0.2,0.2h0.1c0.3-0.3,0.5-0.7,0.6-1.1c0,0,0.1-0.1,0.1-0.1c0-0.2-0.2-0.2-0.3-0.4
			c-0.1,0.3-0.4,0-0.6,0.2c0,0,0,0.1,0,0.1s0.2,0,0.2,0.1c0.1,0.1,0.1,0.2,0,0.3h-0.1c-0.1-0.2-0.3-0.2-0.5-0.2c0.1,0.1-0.1,0,0,0.1
			c-0.3,0-0.5,0-0.8,0.1c-0.1,0-0.2,0-0.2-0.1c-0.1,0.1-0.2,0.3-0.3,0.2s-0.1-0.1-0.1-0.2c0.1-0.1,0.3-0.2,0.3-0.3
			c0.1-0.1,0-0.2,0.1-0.4s0.2-0.3,0.3-0.3s0.5,0.1,0.6,0s0.1,0.1,0.2,0.2s0,0.1,0,0.1s-0.2,0.1-0.3,0.3c0,0.1,0,0.2,0.1,0.2
			c0,0,0,0,0,0c0.1,0,0.2-0.1,0.2-0.2s0.1,0,0.2,0s0-0.1,0-0.1c0.2,0,0.3,0,0.5,0c0.2,0,0.1-0.4,0.1-0.6c0-0.1,0-0.1,0-0.2
			c0,0,0-0.1,0-0.1c0-0.1,0.3-0.1,0.3,0c0,0,0,0.1,0,0.1c0,0.1,0,0.1,0.1,0.1c0,0,0,0,0-0.1c0-0.1,0-0.2,0.1-0.2s0.2,0.1,0.3,0.1
			c0.1,0,0.2,0,0.3,0c0.1,0,0.1-0.1,0-0.2s-0.1,0-0.1,0s-0.2,0.1-0.4,0.1s-0.1-0.1-0.2-0.2s-0.2,0.1-0.3,0c-0.1,0-0.1-0.1-0.1-0.2
			c0,0,0,0,0,0c0-0.1,0.1-0.1,0.2-0.1c0.1-0.1,0.3-0.1,0.4-0.2c0.1-0.1,0.1-0.2,0.1-0.3c0-0.1,0.1-0.1,0.1-0.1s0.3,0,0.5-0.1
			c0.1-0.1,0.3-0.2,0.4-0.3c0.1,0,0.1-0.1,0.2-0.1c0,0,0.1-0.1,0.1-0.1c0-0.3,0-0.5,0-0.8c0-0.1,0.1-0.1,0.1-0.2s-0.1,0-0.1,0
			s-0.1-0.1,0-0.2s0.2,0,0.3-0.1c0.1-0.1,0-0.3-0.1-0.4c0,0,0,0,0,0c-0.1-0.1-0.3,0.1-0.5,0c0,0.1-0.1,0.1-0.1,0.1
			C28,16.6,28,16.3,28,16.2s0,0,0,0s0-0.2,0-0.2h-0.1c-0.2,0.1-0.2,0.3-0.4,0.4c0,0,0,0.1,0,0.1c0,0,0,0.1,0.1,0s0,0.3-0.1,0.2
			c0,0,0,0,0,0s-0.2-0.1-0.2,0s0.2,0.2,0.2,0.3s-0.3,0.2-0.5,0.3c-0.4,0.2-0.9,0-1.3,0.1c-0.2,0-0.5,0-0.7-0.1
			c-0.2,0-0.2,0.1-0.3,0.2s0,0,0,0s0-0.2,0-0.2s-0.1-0.1-0.1-0.1c-0.3-0.5-1-0.5-1.5-0.4c-0.1,0-0.1,0.1-0.2,0.2s-0.3,0-0.4,0.1
			s-0.1,0.1-0.1,0.1s-0.3-0.1-0.5,0c-0.1,0.1-0.2,0.1-0.3,0.1c0,0,0,0.1,0,0.2s-0.1,0-0.1,0s-0.4,0-0.4,0.2h0.1
			c0.1,0.2,0,0.4-0.2,0.4c-0.2,0.1-0.4,0-0.6,0.1c-0.1,0-0.2,0.1-0.2,0.2c-0.3,0.5-0.6,1.1-0.6,1.7l0,0c0,0,0.1,0.1,0.1,0.1
			c-0.3,0.6-0.5,0.9-0.8,1.5c-0.1,0.2-0.3,0.8-0.1,1s-0.1,0.3-0.2,0.4s-0.5,0-0.6-0.3s-0.2-0.1-0.4-0.1h-0.1c-0.2,0-0.3,0-0.5,0
			c-0.2,0.1-0.3,0.4-0.4,0.6s-0.4,0.1-0.4,0.3s0,0.2,0,0.3s-0.1,0.1-0.2,0.1c0,0.1,0,0.1-0.1,0.1c-0.1,0.2-0.1,0.5-0.1,0.7
			c0,0.1,0,0.1,0,0.2c0,0.2,0,0.5-0.1,0.6c-0.1,0.2-0.4,0.2-0.7,0.3c-0.1,0-0.2-0.1-0.4,0c-0.3,0-0.6-0.1-0.9,0l-0.1,0.1
			c-0.1,0.1-0.2-0.1-0.3-0.2s-0.1-0.2-0.2-0.3c-0.2-0.1-0.4,0-0.5,0.2c0.1,0,0,0.1,0.1,0.1c-0.2,0-0.3,0.2-0.5,0.2s-0.2-0.2-0.2-0.4
			s-0.2-0.2-0.3-0.1c0,0,0,0.1,0,0.1c-0.1,0-0.1,0-0.1,0s0.1,0.1,0.2,0.2s0,0.1-0.1,0.1s-0.2,0-0.2,0S11.1,26,11,26s0,0,0,0
			s0,0,0.1,0s-0.1,0.1-0.2,0s0-0.1-0.1-0.2s-0.1,0-0.1,0s0,0.2-0.1,0.2c0,0,0,0.1,0,0.1s0.2,0,0.2,0c0.1,0.1,0.1,0.3,0.1,0.5l0,0
			c0,0,0,0.3-0.1,0.2s0-0.3-0.1-0.4s-0.1,0-0.2,0c0.1,0.2-0.1,0.4,0.1,0.6s-0.2,0.2-0.1,0.3c0.1,0.1,0.2,0.1,0.3,0.1
			c0,0,0-0.1,0-0.1s0.2-0.1,0.2,0c0,0.1,0,0.1,0,0.2c-0.1,0-0.1,0-0.2,0c0.1,0.1,0,0.2,0,0.4s0,0.1,0,0.1s0.2,0,0.3,0.1
			s-0.1,0.1,0,0.2s0.1,0,0.2,0.1s0,0.1,0,0.2s0.2,0.1,0.1,0.2s0.1-0.1,0.1-0.1c0.2,0,0.1-0.2,0.1-0.3c-0.1,0-0.1-0.1-0.1,0
			c0-0.1,0-0.2,0-0.3s-0.2-0.1-0.2-0.2c0.1,0,0.2,0,0.3-0.1c0-0.1,0.1,0,0.2,0.1s0,0,0,0.1s0.1,0.1,0.1,0.1s0.1,0.2,0.2,0.2
			c0.2,0,0.3,0,0.5,0c0-0.1,0-0.1,0-0.2s0.1,0.1,0.2,0.1c0,0.1,0,0.3,0.2,0.4c0,0,0.1,0,0.1,0c0.1,0,0.1,0.1,0.1,0.1s0.1,0,0.1,0
			s0.1,0.1,0.1,0.2s0,0,0,0.1c0.1,0,0.3,0,0.4,0.1s0.2,0.3,0.3,0.5s0.2,0.1,0.2,0.2c0,0,0,0.1,0.1,0.1c0.1,0.1,0.2,0.2,0.4,0.2
			c0.1,0,0.1-0.1,0.2-0.1c0,0,0.1,0,0.1,0c0.1,0.2,0.2,0.5,0.4,0.6s0.1,0.2,0.2,0.2s0.1-0.1,0.2,0c0.1,0.1,0.1,0.1,0.1,0.1
			c0.2,0.1,0.3,0.2,0.3,0.3c0,0,0,0.1,0.1,0.1c0.1,0,0.3-0.1,0.3,0s0.2,0.1,0.3,0.2s0.1,0.1,0.1,0s0-0.1,0-0.2s0.1,0,0.2-0.1
			s0.1-0.2,0.2-0.2s0.2,0.2,0.4,0.3s0.1,0,0.1,0.1s0.1,0.4,0.3,0.4s0.3,0.2,0.5,0.2c0.1,0,0.3,0.1,0.4,0.2c0.1,0,0.1,0,0.2,0
			l0.2-0.1c0.2-0.1,0.4-0.1,0.6-0.2c0,0,0.1-0.1,0.1-0.1c0.3-0.1,0.6,0.1,1,0c0.1,0,0.2,0,0.3-0.1c0.2-0.2,0.3-0.4,0.2-0.6
			c-0.1-0.4-0.3-0.7-0.5-1c-0.1-0.1-0.3-0.3-0.4-0.4c0,0-0.1,0-0.2-0.1s-0.1-0.2-0.1-0.3s-0.1,0-0.2-0.1s0-0.2,0-0.3s0-0.1,0-0.1
			c-0.2-0.1-0.4-0.1-0.5-0.1c-0.1,0-0.1-0.1-0.2-0.1s0-0.1,0-0.1c0.1-0.1,0.2-0.2,0.4-0.2c0-0.1-0.1-0.2,0-0.2
			c0.1-0.1,0.1-0.2,0-0.3c0,0,0-0.1-0.1-0.1c0,0,0,0,0,0c0-0.2,0.1-0.3,0-0.5s-0.3-0.2-0.3-0.4c0,0-0.1-0.1-0.1-0.1
			c0-0.2,0-0.4,0-0.6c0-0.1-0.1-0.2,0-0.2c0.1,0,0.1-0.1,0.2-0.1c0.1,0,0.2-0.1,0.1-0.2s-0.2,0-0.3,0c0,0-0.1-0.1-0.1-0.1
			c0-0.1,0.1-0.2,0-0.3c-0.1,0-0.1-0.1-0.2-0.1c-0.1-0.1,0-0.2,0.1-0.3s0-0.1-0.1,0s0.1-0.2,0-0.3s-0.1-0.2-0.2-0.2s0,0,0,0
			c0,0.1-0.1,0.1-0.2,0.1c-0.1,0-0.1-0.1-0.1-0.2c0,0,0,0,0,0c0-0.1,0.1,0,0.2-0.1s0-0.2,0-0.3c-0.1-0.1-0.2-0.3-0.2-0.4
			c-0.2,0-0.4,0-0.4-0.3c0-0.2,0-0.4-0.1-0.6c-0.1-0.1,0-0.3,0.1-0.4c0,0,0.1-0.1,0.1-0.1c0.2,0,0.5,0,0.6-0.2s-0.1-0.4,0-0.5
			s0.6,0,0.9-0.2c0.1-0.1,0.1-0.2,0-0.3c0-0.1-0.1-0.2-0.2-0.3c-0.1-0.1-0.3-0.1-0.4-0.2c0-0.1,0-0.2,0-0.2c0.1-0.1,0.1-0.2,0.3-0.3
			c0.2-0.1,0.5,0,0.7,0.1c0.2,0,0.4,0.1,0.5,0.3c0,0,0,0.1,0,0.1c0.1,0.3,0.1,0.6,0.1,0.8c0,0.1-0.2,0.1-0.1,0.3
			c0.1-0.1,0.1,0,0.1,0.1c0,0.2,0.2,0.5,0,0.6s-0.2,0-0.4,0s-0.2,0-0.2,0.1c0,0.1,0.1,0.2,0.1,0.2c0.4,0.1,0.9,0.2,1.3,0.2
			c0.1,0,0.2,0.2,0.3,0.2s0.2,0.1,0.3-0.1s0.1,0,0.1,0s0.1,0.1,0.2,0.1s0.1,0.5,0.3,0.4s0.2,0,0.3,0c-0.1,0.1-0.1,0.4,0.1,0.5
			c0.1,0.1,0.2,0.2,0.4,0.3c0,0.1,0.1,0.1,0.2,0c0,0,0.1-0.1,0.1-0.1c0-0.2-0.1-0.4,0-0.5c0.2,0.3,0,0.6,0.1,0.9v0.1
			c0.1,0.1,0.2,0.2,0.3,0.2s0.1-0.1,0.2-0.2c0,0,0-0.1,0-0.1c0-0.1,0-0.2,0.1-0.2c0-0.1,0.2-0.2,0.2-0.4s0-0.1,0-0.1
			c0-0.2,0.2-0.3,0.4-0.3c0,0,0,0,0,0c0,0,0,0,0.1-0.1s0.1-0.2,0.1-0.3c0.1-0.1,0.2-0.2,0.3-0.2c0,0,0.1-0.1,0.1-0.2
			S26.1,22.1,26.2,22.1z"/>
		<path class="st0" d="M20.2,21.8c-0.1,0-0.1,0-0.2,0c-0.1,0-0.1,0.1-0.1,0.2c0,0,0,0,0,0c0,0.1,0.1,0.1,0.1,0.2c0,0.1,0,0.3,0,0.4
			c0,0.1,0.2,0.3,0.2,0.2s0.2-0.4,0.1-0.5S20.4,21.9,20.2,21.8z"/>
		<path class="st0" d="M20,23c0,0,0.1,0.1,0.1,0.1c0,0.1,0.2,0.1,0.3,0c0-0.1,0-0.1,0-0.2c0-0.1-0.1,0-0.2-0.1s-0.1,0-0.1,0
			C20,22.9,20,23,20,23z"/>
		<path class="st0" d="M20.3,23.6c0-0.1,0-0.2-0.1-0.2c-0.1,0-0.1,0-0.2,0.1c-0.2,0.1,0,0.4,0.2,0.6l0.1,0.2c0.1,0.1,0.2,0.1,0.2,0
			c0,0,0,0,0,0c0-0.1,0.1-0.1,0.1-0.2C20.6,23.8,20.5,23.6,20.3,23.6z"/>
		<path class="st0" d="M19.9,22.4C19.9,22.4,19.8,22.4,19.9,22.4c-0.1,0-0.2,0.1-0.2,0.2c0,0.1,0,0.2,0.1,0.3c0,0,0.1,0,0.1-0.1
			S19.9,22.6,19.9,22.4z"/>
		<path class="st0" d="M20.5,23.3c0.1,0,0.1-0.1,0.1-0.1c0.1,0,0.1,0,0.2-0.1c0,0,0-0.1,0-0.1s-0.2,0.1-0.3,0.2S20.4,23.3,20.5,23.3
			z"/>
		<path class="st0" d="M20.3,24.6c0,0.1,0,0.2,0.1,0.2s0.1,0,0.1,0s0-0.1,0-0.2s0,0,0,0S20.4,24.6,20.3,24.6z"/>
		<path class="st0" d="M20.7,25.6c0-0.1,0.1-0.2,0-0.2h-0.1C20.5,25.5,20.6,25.5,20.7,25.6z"/>
		<path class="st0" d="M11.7,29.1c0,0.1,0,0.1,0,0.2c0,0,0.1,0,0.2,0S11.9,29,11.7,29.1z"/>
		<path class="st0" d="M12.6,30.1c-0.1,0.1,0.1,0.3,0.3,0.3c0-0.1,0-0.2,0-0.2S12.6,30,12.6,30.1z"/>
		<path class="st0" d="M13,30.6c-0.1,0.2,0.1,0.4,0.3,0.5c0,0,0,0,0.1,0C13.4,30.9,13.3,30.7,13,30.6C13.1,30.6,13,30.6,13,30.6z"/>
		<path class="st0" d="M27.3,23.4c0.3-0.1,0.5-0.1,0.8-0.1c0.6,0,0.6-0.8,0.9-1.3c0.1-0.1,0-0.4-0.1-0.5c-0.2-0.3-0.9,0-1-0.3
			s0.4,0.1,0.5-0.2c0-0.1,0-0.2-0.1-0.2c-0.1-0.1-0.2-0.1-0.3,0c-0.3,0.3-0.4,0.8-0.6,1.1c-0.4,0.6-1,1.1-1.3,1.7
			c-0.1,0.1,0,0.2,0.1,0.2C26.6,23.9,26.9,23.5,27.3,23.4z"/>
		<path class="st0" d="M29.8,21.9c-0.1,0-0.2,0.1-0.2,0.1c0,0.1,0,0.2,0,0.3c0,0,0.2,0,0.2,0s0-0.2-0.1-0.2
			C29.8,22,29.9,22,29.8,21.9z"/>
		<path class="st0" d="M28,24c0.2,0.2,0.7,0.2,0.6-0.1c-0.1-0.2-0.4-0.3-0.6-0.2C27.8,23.7,28.2,23.9,28,24z"/>
		<path class="st0" d="M28.6,25.8c0.2-0.1,0.1-0.3,0.1-0.5c-0.2,0.1-0.3,0.2-0.4,0.5C28.5,25.8,28.5,25.8,28.6,25.8z"/>
		<path class="st0" d="M31.2,22.1c0-0.1,0-0.1,0-0.2c0,0-0.1,0-0.2,0c-0.1,0-0.1-0.1-0.1-0.2c0-0.1-0.1-0.2-0.1-0.4
			c-0.1,0-0.2,0.2-0.1,0.3c0,0,0,0,0,0C30.8,21.8,30.9,22.1,31.2,22.1z"/>
		<path class="st0" d="M27.8,20.3c-0.1,0-0.2,0-0.1,0.1s0.1,0,0.2,0S27.9,20.4,27.8,20.3z"/>
		<path class="st0" d="M11.1,25.8c0-0.1,0-0.1-0.1-0.1s-0.1,0-0.2,0s0,0.1,0,0.2C10.9,25.8,11,25.8,11.1,25.8
			C11.1,25.8,11.1,25.8,11.1,25.8z"/>
		<path class="st0" d="M12.1,25.8c0.1,0,0.2-0.1,0.2-0.2s0,0,0,0s-0.4,0-0.3,0.1C11.9,25.7,12,25.8,12.1,25.8
			C12.1,25.8,12.1,25.8,12.1,25.8z"/>
		<path class="st0" d="M28.2,15.8c0-0.1,0.2-0.1,0.2-0.2s-0.1,0-0.1,0S28.2,15.7,28.2,15.8C28.2,15.9,28.2,15.8,28.2,15.8
			C28.2,15.8,28.2,15.8,28.2,15.8z"/>
		<path class="st0" d="M28.7,15.6c0,0,0.1-0.1,0-0.1c-0.1,0-0.1,0-0.2,0C28.5,15.5,28.6,15.7,28.7,15.6z"/>
		<path class="st0" d="M27.2,19.4c-0.1,0.2,0.2,0.4,0.4,0.3c0.1-0.1,0.1-0.2,0-0.3c0,0,0,0-0.1,0C27.4,19.3,27.2,19.3,27.2,19.4z"/>
		<path class="st0" d="M27.5,20.5c0.1-0.1,0-0.1,0-0.2s-0.2,0-0.2,0s0,0-0.1,0c0,0,0,0.1,0.1,0.1c0,0,0,0,0,0
			C27.3,20.4,27.4,20.5,27.5,20.5z"/>
		<path class="st0" d="M27.1,20.8C27,20.8,27,20.9,27,21c0,0,0,0,0,0c0.1,0.1,0.2,0,0.2-0.1c0,0,0,0,0,0c0-0.1,0.1-0.2,0-0.3
			S27.2,20.7,27.1,20.8z"/>
		<path class="st0" d="M26.8,20.4c0,0.1-0.1,0.3,0,0.4s0.1,0,0.1,0s0-0.2,0.1-0.3s-0.1-0.1-0.1,0s0-0.1,0-0.1S26.8,20.4,26.8,20.4z"
			/>
		<path class="st0" d="M28.7,28.3L28.7,28.3z"/>
		<path class="st0" d="M37.6,30.4L37.6,30.4z"/>
		<path class="st0" d="M29.4,24.9C29.4,24.9,29.4,24.9,29.4,24.9c-0.1-0.1-0.2-0.1-0.2-0.2s-0.1,0.1-0.2,0.1c0,0,0,0.1,0,0.1
			c0.1,0.1,0,0.2-0.1,0.3s0.1,0.1,0.1,0.2s-0.1,0.2,0,0.3c-0.1,0.1-0.1,0.1-0.1,0.2c0,0-0.1,0.1,0,0.2s0.3-0.1,0.4-0.1
			c0.1,0,0.1,0,0.2,0c0.1-0.1,0.2-0.1,0.2-0.2s-0.2-0.1-0.2-0.1c0.1-0.2,0-0.3,0-0.5C29.3,25.1,29.4,24.9,29.4,24.9z"/>
		<path class="st0" d="M30.3,27.6C30.3,27.6,30.3,27.6,30.3,27.6c0.2-0.1,0.2-0.2,0.1-0.2c0,0,0,0,0,0c0-0.1-0.2-0.1-0.2,0
			C30.2,27.5,30.2,27.6,30.3,27.6z"/>
		<path class="st0" d="M30.4,27.2c0.1,0,0-0.1,0-0.2s-0.1,0-0.1,0S30.3,27.3,30.4,27.2z"/>
		<path class="st0" d="M31.2,27.6L31.2,27.6c0,0-0.1,0-0.2,0h-0.1c0,0.1,0,0.2,0,0.2C31,27.8,31.2,27.8,31.2,27.6z"/>
		<path class="st0" d="M32.7,27.5c0,0,0-0.1,0-0.1s-0.2,0.1-0.4,0.1c0,0,0,0.1,0,0.1h-0.1C32.3,27.7,32.5,27.6,32.7,27.5z"/>
		<path class="st0" d="M33.2,27c0,0.2,0.3,0.1,0.3,0s-0.2-0.1-0.2,0c0,0,0,0,0-0.1C33.3,26.9,33.2,26.9,33.2,27z"/>
		<path class="st0" d="M40,22.5c0,0.1,0.2,0.1,0.3,0.2s0.3,0,0.4-0.1s-0.2-0.4-0.4-0.4S40,22.4,40,22.5z"/>
		<path class="st0" d="M40,29.7c-0.1,0-0.2,0-0.2,0c-0.2,0.7-0.8,1.7,0,2.1c0.3,0.2,0.8-0.2,0.8-0.4C40.8,30.8,40.6,30.1,40,29.7z"
			/>
		<path class="st0" d="M37.9,26.6c-0.1,0.1-0.1,0.3,0,0.3c0.1,0,0.1,0,0.2-0.1c0.1-0.1,0.1-0.2,0-0.2S37.9,26.6,37.9,26.6z"/>
		<path class="st0" d="M38.4,33.8c-0.1,0.1,0,0.3,0.1,0.3C38.5,34,38.7,33.9,38.4,33.8C38.4,33.8,38.4,33.8,38.4,33.8z"/>
		<path class="st0" d="M41.6,17.3c-0.1,0-0.1,0-0.2,0.1c0,0.1,0,0.2,0,0.3c-0.2,0.6-1,1.2-0.6,1.9c0,0,0,0,0.1,0
			c0.2-0.1,0.3-0.3,0.4-0.5c0.2-0.4,0.4-0.9,0.5-1.4C41.9,17.5,41.8,17.3,41.6,17.3z"/>
		<path class="st0" d="M40.4,19.8c0,0,0,0.1,0,0.1c0,0,0.1,0,0.1,0c0.1,0,0.1-0.2,0.1-0.2C40.6,19.7,40.5,19.7,40.4,19.8
			C40.4,19.8,40.4,19.8,40.4,19.8z"/>
		<path class="st0" d="M33.2,15.4c-0.1-0.3-0.3,0-0.5,0s-0.1-0.1-0.1-0.1c-0.1,0-0.1,0-0.2,0.1c-0.1,0-0.1,0.1,0,0.2
			c0,0,0.1,0.1,0.1,0.1c0.1,0,0.1-0.1,0.2-0.1s0,0.4,0.2,0.3s0.2-0.1,0.4-0.1s0.2-0.2,0.2-0.3c0.2,0,0.3-0.1,0.4,0s0.1,0.1,0.1,0.2
			s0.2,0.1,0.3,0.1s0.3,0,0.4-0.1c0.1-0.1,0.1-0.2,0-0.4c0,0,0,0,0,0c-0.1,0-0.2,0-0.2,0s-0.2-0.2-0.3-0.2
			C33.7,14.9,33.5,15.2,33.2,15.4z"/>
		<path class="st0" d="M34.5,15.8L34.5,15.8z"/>
		<path class="st0" d="M31.8,15.6c0.1,0,0.3,0,0.4,0l0,0c0-0.2-0.2-0.2-0.4-0.1s0,0,0,0s-0.1,0-0.1,0S31.8,15.7,31.8,15.6z"/>
		<path class="st0" d="M32.3,16.6c0.2-0.2,0.4-0.3,0.6-0.4c0,0,0,0,0-0.1c0,0,0,0,0,0.1c0-0.1-0.1-0.2-0.2-0.2
			c0,0.1-0.1,0.1-0.2,0.2c-0.1,0.1-0.2,0.2-0.3,0.3c0,0.1-0.1,0.3,0,0.3S32.3,16.6,32.3,16.6z"/>
		<path class="st0" d="M30.2,15.2c0,0.1,0,0.1,0,0.2S30.3,15.2,30.2,15.2C30.2,15.1,30.2,15.1,30.2,15.2z"/>
		<path class="st0" d="M25.1,12c0.2,0.1,0.4,0.1,0.5,0.1c0,0,0.1-0.1,0.1-0.2s-0.2,0-0.3-0.1h-0.1C25.2,11.7,25.2,11.9,25.1,12
			C25,12,25.1,12,25.1,12z"/>
		<path class="st0" d="M38,14.3c-0.1,0.1-0.2,0.1-0.3,0.1s-0.1,0.1,0,0.2s0.2,0.1,0.4,0c0,0.1,0,0.1,0.1,0.1s0.1-0.1,0.2-0.1
			s0,0.1,0,0.1s-0.1,0.1-0.2,0.2c-0.1,0-0.2,0-0.2,0c0,0,0,0,0,0h-0.1c0,0.1,0,0.2,0,0.2s-0.6,0.3-0.4,0.5s0.4,0.1,0.7,0.1
			c0,0,0.1,0,0-0.1c0-0.2,0.1-0.3,0.2-0.4s0-0.1-0.1-0.2s0-0.2,0.1-0.2s0.1-0.1,0.2-0.1v-0.1c0.1,0,0.2-0.1,0.2-0.2
			s-0.2-0.3-0.1-0.5c0-0.1,0.1-0.1,0.2-0.1c0,0,0-0.1,0-0.1c0,0,0,0,0,0h-0.1c0,0.1-0.1,0-0.1,0.1c-0.1,0-0.3,0-0.4,0.1
			C38,14,38.1,14.2,38,14.3z"/>
		<path class="st0" d="M36.5,15.8c0,0.2,0.2,0.1,0.3,0s0-0.1-0.1-0.1S36.6,15.8,36.5,15.8z"/>
		<path class="st0" d="M38.6,15.4c-0.1,0.1,0.2,0.1,0.3,0.1l0,0c0,0,0,0,0-0.1S38.7,15.4,38.6,15.4z"/>
		<path class="st0" d="M39,14.7c0,0-0.1,0-0.1,0s0.1,0.2,0.2,0.1C39.1,14.8,39.1,14.8,39,14.7C39.1,14.8,39.1,14.7,39,14.7z"/>
		<path class="st0" d="M35.9,9c0.1,0.1,0.2,0.2,0.3,0.3c0.1,0.2,0,0.4,0,0.5s0.1,0.1,0.1,0.1s0,0.2,0,0.3c0,0.2,0.1,0.4,0.1,0.6
			c0.1,0,0.1,0.1,0.2,0.1c0,0.1,0,0.2,0.1,0.3c0,0.1,0.2,0.1,0.3,0.1c0.1,0.2,0.3,0.4,0.5,0.5c0.1,0,0.2,0,0.2,0.1s0,0.1,0,0.1
			c0.3,0.1,0.7,0.2,0.5,0.5c0.1-0.1,0.2-0.1,0.2-0.2c0.1-0.2,0.1-0.4,0-0.6c0-0.1-0.2-0.2-0.2-0.3c0-0.1,0-0.1,0-0.2
			c0-0.1-0.2-0.1-0.2-0.1s-0.1-0.4,0.2-0.4c0,0,0,0,0-0.1c-0.1,0-0.2,0-0.3,0c-0.1,0-0.1-0.1-0.1-0.1s0-0.3-0.1-0.4
			s-0.3-0.1-0.4-0.2c-0.1-0.1-0.2-0.1-0.3-0.2c-0.1-0.1-0.2,0.1-0.2,0c-0.2-0.2-0.4-0.6-0.6-0.8c-0.1-0.1-0.3-0.1-0.4-0.1
			c0,0,0,0.1,0,0.1h0C35.8,8.9,35.9,9,35.9,9z"/>
		<path class="st0" d="M34.6,9.5c-0.1,0.1-0.1,0.2,0,0.3c0,0,0,0,0,0c0.2,0,0.3,0,0.5,0c0.1,0,0.2-0.1,0.2-0.2s0.3-0.1,0.5-0.1
			c0,0.1,0.1,0.1,0.1,0.1c0-0.1,0-0.3-0.1-0.4s-0.2-0.2-0.3-0.4s-0.1,0-0.1,0.1c0,0.2-0.2,0.2-0.4,0.3c0,0,0,0.1,0,0.1h0
			c0,0,0,0,0-0.1s-0.2,0-0.2,0.1S34.7,9.4,34.6,9.5z"/>
		<path class="st0" d="M31.3,4c-0.1-0.3-0.4-0.6-0.3-0.9c0.4,0.1,0.9,0.1,1.3-0.1c0.3-0.1,0.7,0.1,1-0.1c0,0,0-0.1,0-0.2
			c-0.4,0.2-0.7-0.3-1-0.1c-0.4,0.2-0.8,0.4-1.3,0.5c-0.3,0.1-1.2,0-1.3,0.5c0.5-0.1,1,0.1,1.3,0.5C31,4,31.2,4,31.3,4z"/>
		<path class="st0" d="M32.7,6.1c0.1,0.2,0.3,0.3,0.6,0.3c0-0.1,0-0.2-0.1-0.2C33.1,6.1,32.9,6,32.7,6.1z"/>
		<path class="st0" d="M32.4,6.8c-0.1,0,0,0.2,0.1,0.2C32.5,6.9,32.6,6.7,32.4,6.8z"/>
		<path class="st0" d="M32.1,6.3C32.1,6.4,32.1,6.4,32.1,6.3C32.1,6.3,32.1,6.3,32.1,6.3c0.1-0.1-0.1-0.2-0.2-0.3s0,0.1,0,0.1
			S32,6.3,32.1,6.3z"/>
		<path class="st0" d="M33.3,8C33.3,8,33.4,8,33.3,8c0.1,0,0.1-0.1,0.1-0.1l0,0c0-0.1,0-0.1,0-0.2s-0.1,0-0.1,0S33.3,7.9,33.3,8z"/>
		<path class="st0" d="M33.8,8c0,0,0,0.1,0,0.1c0,0,0.1,0,0.1,0C33.8,8.1,33.8,8.1,33.8,8C33.9,7.9,33.8,8,33.8,8z"/>
		<path class="st0" d="M33.6,8.3c0,0.1,0.1,0,0.1-0.1l0,0l0,0V8.2l0,0c-0.1-0.1-0.2-0.1-0.2-0.1S33.6,8.2,33.6,8.3z"/>
		<path class="st0" d="M33.8,8.4C33.8,8.4,33.7,8.4,33.8,8.4c0.1,0.2,0.2,0.2,0.3,0.2c0,0,0.1-0.1,0.1-0.2S34,8.4,33.8,8.4L33.8,8.4
			z"/>
		<path class="st0" d="M34.4,8.7c0.1,0,0-0.1,0-0.1s-0.1-0.1-0.1-0.1s-0.1,0.1,0,0.2C34.3,8.7,34.4,8.7,34.4,8.7z"/>
		<path class="st0" d="M34.6,9.1c0,0,0.1,0,0.1-0.1s0-0.1,0-0.1s0,0,0,0c0,0,0-0.1,0-0.1c0,0,0,0,0,0c0,0-0.1,0.1-0.1,0s0,0,0,0
			s-0.1-0.1-0.1,0c0,0.1,0,0.1,0,0.2C34.6,9,34.6,9,34.6,9.1z"/>
		<path class="st0" d="M34.3,9.4C34.3,9.4,34.3,9.3,34.3,9.4C34.3,9.3,34.3,9.3,34.3,9.4c0.1-0.1,0.1-0.2,0.1-0.2c0,0,0,0-0.1,0
			s0,0.1-0.1,0.1S34.2,9.4,34.3,9.4z"/>
		<path class="st0" d="M33.9,2.3L33.9,2.3L33.9,2.3c0,0-0.2,0-0.2,0S33.8,2.4,33.9,2.3z"/>
		<path class="st0" d="M38.7,5.8c0.1,0.1,0.2,0,0.3,0.1s0.1,0.2,0.3,0.2c0.1,0,0.2,0,0.2-0.1c0-0.2-0.1-0.5-0.3-0.6
			c-0.2,0-0.4-0.1-0.7-0.1c-0.1,0-0.1,0.2-0.1,0.2C38.5,5.6,38.6,5.7,38.7,5.8z"/>
		<path class="st0" d="M44.5,13.1c-0.2-0.2-0.2-0.4-0.3-0.6s-0.3-0.2-0.4-0.3s0-0.2,0-0.3s-0.1-0.1-0.1-0.1
			c-0.1-0.2-0.2-0.3-0.3-0.4c0-0.2-0.2-0.3-0.4-0.4c0,0,0-0.1,0-0.1s-0.1-0.1-0.2-0.1h-0.1c-0.1-0.1-0.2-0.3-0.3-0.4
			c-0.1-0.2-0.3-0.3-0.4-0.4s-0.1-0.2-0.2-0.2s-0.3,0-0.3-0.1S41.2,9.2,41,9s0-0.6-0.1-0.9c0-0.1-0.2-0.1-0.3-0.1
			c-0.1,0-0.1,0-0.1-0.1c-0.1-0.2,0-0.4-0.2-0.6s-0.4-0.5-0.6-0.8s-0.3-0.1-0.5-0.1c0,0-0.1,0-0.1-0.1c0,0-0.1-0.1-0.1-0.2
			c-0.1-0.1-0.3-0.2-0.4-0.3c-0.3-0.1-0.6-0.1-0.9-0.1c-0.3,0-0.5,0.1-0.7,0.2c-0.2,0.2-0.5,0.3-0.7,0.3c-0.1,0,0,0.2,0,0.2
			S36,6.7,36,6.8s0,0,0,0s0.2,0,0.2,0s0.1,0.1,0.2,0.2c0.1,0.1,0.2,0.2,0.3,0.4c0,0.1-0.1,0.2,0,0.2s0.1,0.3,0.1,0.5s0.2,0,0.2,0
			c0.2,0.1,0.3,0.4,0.2,0.6c0,0.1,0,0.3,0,0.4c0.1,0.2,0.1,0.5,0.3,0.7c0-0.1,0.1-0.2,0.1-0.1s0.2-0.1,0.3-0.2
			c0.3-0.2,0.6,0.2,0.7,0.5s0,0.6,0.1,0.8c0.1,0.2,0.3,0.4,0.5,0.6c0.1,0,0.1,0.2,0.1,0.3s0.1,0.1,0.2,0.1s0-0.1,0.1-0.2
			c0.1,0,0.1,0,0.2,0.1c0.2,0.3,0.3,0.8,0.7,0.8c0,0.1,0,0.1,0.1,0.1c0.1,0,0.2-0.1,0.2,0s0.1,0.2,0.2,0.3s0.3,0,0.5,0
			c0.1,0,0.2,0.1,0.2,0.2l0.2,0.2c0.3,0.3,0.4,0.7,0.8,0.9c0.1,0.1,0.2,0.2,0.4,0.2s0-0.1,0.1-0.1c0.1,0,0.2-0.1,0.3-0.2
			c0.1-0.2,0.3-0.3,0.5-0.4v-0.1c0.1-0.1,0.3-0.1,0.4-0.2S44.5,13.2,44.5,13.1z"/>
		<path class="st0" d="M38.8,12.5C38.8,12.5,38.9,12.5,38.8,12.5H39H38.8z"/>
		<path class="st0" d="M38.5,13.3c0,0.1,0.2,0.1,0.3,0.2s0.2,0.2,0.2,0.3s0.1-0.2,0.2-0.3s0.1,0,0.2,0s0-0.4-0.2-0.5
			s-0.2-0.3-0.4-0.3c-0.1,0-0.2,0-0.2,0.1c-0.1,0.1,0,0.3-0.1,0.4S38.5,13.2,38.5,13.3z"/>
		<path class="st0" d="M39.6,13.9c0,0.3,0,0.5,0,0.8c0,0.1-0.2,0.1-0.3,0.2c-0.1,0.1-0.1,0.2-0.1,0.3c0,0.2,0.2,0.2,0.4,0.2
			c0.4,0.2,0.6,0.4,0.8,0.8c0.1,0.1,0.1,0.3,0.2,0.4S41,16.8,41,17c0,0.1,0.1,0.1,0.2,0.1c0,0,0,0,0,0c0.2-0.2,0.2-0.4,0-0.6
			c-0.1-0.1-0.1-0.2-0.2-0.3c0-0.4-0.1-0.7-0.3-1.1c-0.1-0.2-0.4-0.3-0.5-0.4s-0.1-0.1,0-0.1s0.1-0.1,0.2-0.3s-0.2-0.3-0.2-0.5H40
			h0.1C39.9,13.7,39.7,13.7,39.6,13.9z"/>
		<path class="st0" d="M41.6,15.8c0-0.1,0-0.2,0-0.4s-0.2-0.2-0.4-0.2s-0.2,0-0.2,0.1c0,0.1,0,0.2,0,0.3c0.3,0.4,0.3,0.9,0.4,1.3
			c0,0.2,0.4,0,0.4-0.1c0-0.1,0-0.2,0-0.3c0-0.1-0.1-0.2-0.2-0.3S41.7,16,41.6,15.8z"/>
		<path class="st0" d="M41.1,14.6c-0.1,0.1,0.1,0.2,0,0.4h0.1c0.1,0,0.1-0.1,0.1-0.1C41.1,14.9,41.1,14.7,41.1,14.6
			C41.2,14.5,41.1,14.6,41.1,14.6z"/>
		<path class="st0" d="M41,14.2c0-0.1,0-0.2-0.1-0.2c0,0.1-0.2,0.1-0.2,0.2s0,0.2,0.1,0.2s0,0,0,0C41,14.6,41.2,14.4,41,14.2
			L41,14.2z"/>
		<path class="st0" d="M40.3,13.6c0.2,0.1,0,0.3,0.2,0.4s0.3,0.1,0.4,0s0-0.2-0.2-0.2s0-0.1,0-0.2c0,0-0.1,0-0.1,0
			c-0.2-0.1,0.1-0.2,0-0.3s0-0.1,0-0.1c-0.1,0-0.1,0-0.1,0.1c0,0,0,0,0,0c0,0.1,0,0.1,0,0.2S40.3,13.5,40.3,13.6z"/>
		<path class="st0" d="M40.2,12.7c-0.1,0-0.2,0-0.3-0.1s-0.1,0-0.1,0s0,0,0,0.1s-0.1,0.1,0,0.2c0.1,0,0.1,0.1,0.1,0.2
			c0,0.1,0.2,0,0.2,0.1c0,0.1,0.1,0.1,0.1,0.1c0,0,0,0,0,0c0.1,0,0-0.1,0-0.2s0-0.1,0,0S40.3,12.7,40.2,12.7z"/>
		<path class="st0" d="M30.3,19.2L30.3,19.2c0,0,0-0.1,0.1-0.1c0,0,0-0.1,0-0.1s-0.1,0-0.1,0.1h0C30.2,19.1,30.2,19.1,30.3,19.2z"/>
		<path class="st0" d="M41.3,17.4c-0.2,0-0.4,0-0.5,0.1c-0.3,0.2-0.4,0.6-0.6,0.9c-0.1,0.2-0.3,0.2-0.5,0.2c-0.1,0-0.1,0-0.1-0.1
			c0-0.1,0-0.2,0-0.3c0.1,0,0.1-0.1,0.2-0.2c0.1-0.2,0.1-0.3,0-0.5c-0.1-0.3-0.4-0.5-0.7-0.4c-0.3,0.1-0.5,0.4-0.6,0.6h-0.1
			c-0.1-0.1-0.3-0.2-0.3-0.4c0,0,0-0.1,0-0.1c0.1,0.1,0.2,0.2,0.4,0.2s0-0.2-0.1-0.3s-0.2-0.1-0.3-0.1s-0.2-0.1-0.2-0.2
			s-0.1-0.4-0.2-0.4c-0.2,0-0.3-0.1-0.5-0.2c-0.1,0-0.2,0-0.2,0s0-0.2,0-0.2c0.2,0,0.4,0,0.3-0.2s-0.2-0.2-0.3-0.1s-0.1,0-0.1,0.1
			s0,0.1,0,0.1s0.1,0.2,0,0.3s-0.3,0.1-0.4,0.2h-0.1c-0.1,0-0.3-0.2-0.4-0.1s-0.1,0.2-0.2,0.3s-0.2,0-0.3,0.1s-0.1,0.3,0,0.4
			c0,0.1,0,0.1,0,0.2c-0.1,0.1-0.2-0.1-0.2-0.1C35.1,17,35,16.9,35,16.7c0-0.2,0.2-0.3,0.2-0.4c0.1-0.1,0.1-0.2,0-0.3
			c-0.1-0.1-0.2-0.2-0.3-0.1c-0.3,0.1-0.4,0.6-0.7,0.5S34,16,33.8,16s-0.2-0.1-0.3-0.1c-0.2,0.1-0.4,0.3-0.7,0.4
			c-0.2,0.1-0.4,0.3-0.5,0.5c-0.1,0.3-0.6,0.4-0.8,0.1c-0.1-0.2-0.2-0.3-0.4-0.3c-0.2,0-0.2,0.2-0.4,0.3c-0.1,0-0.2,0-0.2-0.1
			c0,0,0-0.1,0-0.1c0.2-0.2,0.5-0.4,0.8-0.5c0.1,0,0.2-0.2,0.1-0.4c0,0,0-0.1,0-0.1c0-0.1,0-0.2,0-0.2c-0.4,0.1-0.7,0.3-0.9,0.6
			c0,0,0,0.1-0.1,0.1c-0.2,0-0.5,0.1-0.7,0c0,0-0.1-0.3-0.1-0.3s-0.1,0.2-0.2,0.3s-0.1,0.1-0.1,0.1s0.1,0.4,0.1,0.6
			s-0.2,0.1-0.4,0.1s-0.1,0.1-0.1,0.2s0.1,0.1,0.1,0.1s0.1,0.4,0.3,0.5s0.5,0,0.7,0.1c0.2,0,0.3,0.2,0.4,0.3c0,0.1,0.2,0.1,0.2,0.3
			c0,0.1,0.1,0.1,0.1,0.1c0.1,0,0.2,0,0.2,0S31,19,31,19.1s0,0.4,0.1,0.5s-0.1,0.2-0.1,0.3s-0.1,0-0.1,0.1c0,0.1,0,0.3,0.1,0.4
			c0,0.1,0.1,0,0.2,0c0.1,0.2,0.2,0.3,0.3,0.5c0,0,0.1,0.1,0.2,0.1c-0.1,0-0.1,0.1-0.1,0.1c0,0,0,0,0,0c0,0.1,0.2,0.1,0.2,0
			c0.1,0,0.2-0.1,0.3-0.2c0,0,0.1,0,0.2-0.1s0.1,0.2,0.1,0.2s-0.4,0-0.5,0.1s-0.2,0-0.3,0.1s0,0.2,0.1,0.2c0.3,0.1,0.1,0.5-0.1,0.8
			c0,0.1,0,0.1,0,0.2c0,0-0.1,0.1-0.1,0.1c-0.3,0-0.6-0.1-0.9,0c-0.1,0-0.1,0.2-0.2,0.3h0.1c-0.1,0-0.1,0.1-0.1,0.1s0,0.2,0,0.2
			c-0.2,0.3-0.4,0.7-0.4,1.1c0,0.1,0.1,0.2,0.2,0.2s0.2-0.1,0.3-0.1s0.1,0.2,0.2,0.3s0.3,0.1,0.3,0s0-0.3,0.1-0.4s-0.1-0.3-0.1-0.4
			c0-0.1,0-0.3,0.1-0.3c0,0,0.1,0,0.2,0.1s0,0.2,0.1,0.3s0,0.2,0,0.3c0.1,0.1,0.1,0.2,0.1,0.2c0,0-0.1,0.1-0.1,0.1s0,0.2-0.1,0.3
			s-0.1,0.2-0.2,0.2s-0.6-0.1-0.5-0.4c-0.1,0-0.2,0-0.2,0.1s0,0.3-0.1,0.4c-0.1,0.1-0.2,0.2-0.3,0.4c0,0,0,0,0,0.1
			c-0.1,0.1-0.3,0.2-0.5,0.3l0,0c0,0-0.3,0-0.3,0.1s0.1,0.2,0.2,0.4s0,0.2-0.1,0.2c-0.2,0-0.4,0-0.5,0c0,0.1,0,0,0,0.1
			s0,0.3-0.1,0.4s0,0.2,0.1,0.3s0.1,0.3,0.2,0.3s0.1,0.1,0.2,0.1c0.2,0,0.3-0.1,0.3-0.3c0-0.1,0.2,0,0.3,0c0,0,0.1,0,0.1,0
			c0.1-0.1,0-0.2,0-0.3c0.2-0.2,0.3-0.3,0.5-0.5c0.1-0.1,0.2-0.1,0.3-0.1c0.1,0,0.2,0.1,0.2,0.1c0.1,0,0.2,0.1,0.2,0.1
			c0,0,0.1,0,0.1,0.1c0.1,0.1,0.2,0.2,0.4,0.3s0-0.1,0.1,0c0-0.1,0-0.3-0.1-0.4c-0.1-0.1-0.2-0.2-0.4-0.3c0-0.1,0-0.1,0-0.2H31
			c0.1,0,0.2,0.1,0.3,0.1c0.2,0.1,0.1,0.4,0.3,0.4s0.1,0.2,0.2,0.2c0.2,0.1,0.3,0,0.4-0.1c0-0.1,0-0.1-0.1-0.2s0.1-0.1,0.1-0.2
			s0-0.2,0-0.4s0-0.1,0-0.1l0,0c0.1-0.2,0-0.4,0.1-0.5s0.1,0,0.1,0c0,0.1,0.1,0.1,0.2,0.1c0.1,0,0.2-0.1,0.3-0.2
			c0.1-0.1,0.3-0.1,0.4,0c0,0,0,0,0.1,0.1c0,0.1,0,0.3-0.1,0.3c-0.3,0-0.5,0.1-0.7,0.3c0,0-0.1,0.1-0.1,0.1
			c-0.1,0.1-0.2,0.2-0.1,0.4c0,0.1-0.1,0.1-0.1,0.2c0.1,0,0.1,0.2,0.2,0.2c0.2,0.1,0.4,0,0.5-0.2c0-0.1,0-0.2,0-0.2
			c0.1,0,0.2-0.1,0.3-0.1c0.2,0,0.3,0.1,0.4,0.3c0,0,0,0.1,0,0.1c0,0-0.1,0-0.1,0.1c-0.1,0.2-0.2,0.4-0.4,0.5s-0.7,0.1-1,0.3
			C32,28,32,28.2,31.8,28.2s-0.3,0.1-0.5,0l0,0c0,0.1-0.3,0-0.5,0s0-0.2-0.1-0.2s-0.2,0-0.2,0s0-0.1,0-0.1c-0.4-0.1-0.7,0-1.1,0
			c-0.1,0-0.1,0.1-0.2,0.2s-0.1,0.1-0.2,0.1c-0.1,0.1-0.3,0.2-0.5,0.1c-0.1,0-0.3,0.1-0.4,0.1c-0.2,0-0.4,0.2-0.6,0.4
			c-0.1,0.1-0.3,0.1-0.5,0.1c0,0,0,0.1-0.1,0.1c-0.3,0.1-0.5,0.4-0.6,0.7c0,0.1,0,0.2,0,0.2c-0.1,0.2-0.2,0.4-0.4,0.6
			c0,0,0,0.1,0,0.1c0.2,0.3,0.5,0.5,0.6,0.8c0,0.1,0.1,0.1,0.2,0.1s0.2,0.3,0.3,0.5c0.2,0.2,0.5,0.3,0.8,0.2c0.1,0,0.2,0.1,0.3,0.1
			c0.3,0.1,0.7,0.1,1-0.1c0.5,0.2,1-0.1,1.4,0.2c0.1,0,0.1,0.2,0.1,0.3c0.1,0.2,0.2,0.4,0.4,0.5c0.2,0.1,0.4,0.2,0.6,0.2
			c0.1,0,0.1,0.2,0.1,0.2c0,0.1,0,0.2,0.1,0.3s0.2,0.2,0.2,0.3s-0.2,0.3-0.1,0.5s0,0.2,0,0.2c0.3,0.3,0.5,0.5,0.8,0.8
			c0,0,0.1,0.1,0.1,0.1s0.1,0.2,0.2,0.2s0,0.2,0.1,0.3c0.1,0.1,0.2,0.3,0.4,0.4c0.2,0.2,0.4,0.1,0.6,0.2c0,0,0.1,0.1,0.2,0.1
			c0.2,0.1,0.4,0.1,0.5,0c0.1-0.1,0.2-0.2,0.3-0.3c0.2-0.1,0.4-0.1,0.5-0.1c0.1,0,0.1,0,0.1-0.1c0-0.1,0.1-0.2,0.1-0.3
			c0.1,0,0.3-0.1,0.4-0.1c0.2-0.2,0.4-0.4,0.6-0.6c0.2-0.2,0.6-0.1,0.7-0.3s0-0.5,0.1-0.8c0.1-0.1,0.1-0.3,0.2-0.4
			c0-0.2,0-0.5,0-0.7c0-0.1-0.2-0.3-0.1-0.4s0.2-0.1,0.2-0.2s0.2-0.4,0.3-0.6s0.1,0,0.1-0.1s0-0.2,0-0.2s-0.1-0.1-0.1-0.1
			c-0.2-0.3-0.4-0.5-0.7-0.7c-0.1,0-0.1-0.1-0.1-0.2s0-0.1,0-0.1s-0.1-0.1-0.1-0.2h0.1l0,0c0.1-0.2,0.2-0.4,0.3-0.5
			c0,0,0.2,0,0.2-0.1c0-0.2,0-0.3,0-0.5c-0.1-0.2,0-0.4,0-0.6c0-0.4-0.1-0.7-0.2-1.1c0-0.1-0.2-0.2-0.3-0.2c0,0,0,0,0,0
			c-0.1,0-0.1,0.1-0.1,0.1c0,0.1-0.1,0.1-0.1,0.2c0,0.1-0.2,0.2-0.3,0.3c0,0.1,0,0.2-0.1,0.2c-0.1,0.1-0.1,0.1-0.2,0.2
			c-0.1,0-0.3,0.1-0.4,0.1c-0.1,0-0.3,0-0.5,0c-0.8-0.2-1.5-0.5-2.3-0.8c0,0,0-0.1,0-0.1s0.3,0,0.4,0s0-0.1,0-0.1
			c0.2,0.1,0.3,0.1,0.5,0.2c0.3,0.1,0.7,0.2,1,0.2c0.3,0.1,0.5,0.3,0.7,0.3s0.4-0.1,0.5-0.2c0,0,0-0.1,0-0.1s0.2-0.2,0.3-0.4
			s0-0.2,0-0.4s0.1-0.1,0.1-0.2c0-0.2,0-0.3,0-0.5c0.1,0,0.2-0.1,0.1-0.1c0,0,0-0.1,0-0.1c0-0.1,0-0.2,0-0.3c0-0.2,0-0.5-0.1-0.7
			c-0.1-0.1-0.2-0.2-0.3-0.1c0,0,0,0.1-0.1,0.1c-0.1,0-0.2,0.1-0.3,0.1c-0.1,0.1-0.1,0.3-0.2,0.3c-0.1,0.1-0.3,0.3-0.5,0.3
			c-0.1,0.1-0.3,0-0.3-0.1c-0.1-0.3,0.3-0.3,0.5-0.3c0,0,0.1-0.1,0.1-0.1c0.1-0.1,0.1-0.3,0.2-0.3c0.1,0,0.2,0,0.3,0
			c0.1,0,0.1-0.1,0.2-0.1s0.1-0.2,0.1-0.2s0.2-0.2,0.2-0.3s0.1-0.6,0.3-0.8s0.1,0.2,0.1,0.2c0.1,0.1,0.3,0.1,0.4,0
			c0.1-0.1,0-0.2,0.1-0.3c0.1,0,0.1,0,0.2,0c0.1,0.1,0.2,0.2,0.3,0.1s0.1-0.1,0.2-0.2c0.1,0,0.2,0,0.4,0c0.3-0.1,0.9,0,0.9-0.2
			c-0.1-0.4-0.4-0.8-0.8-1c-0.3-0.2-0.2-0.6-0.5-0.9c-0.1-0.1,0-0.2-0.1-0.2l-0.1-0.1c0,0-0.1-0.1-0.1-0.1c0-0.2-0.1-0.5,0.1-0.7
			s0.2-0.1,0.3-0.2s0.3-0.1,0.3-0.3c0-0.2,0-0.4,0-0.6c0-0.1,0.1-0.1,0.2-0.1c0.3,0.1,0.7,0,1-0.1c0.1-0.1,0.1-0.2,0.1-0.2
			c0.2-0.4,0.6-0.6,0.6-1.1c0-0.1,0.1-0.1,0.2-0.2S41.3,17.4,41.3,17.4z M34.8,25L34.8,25c0,0.1-0.1,0.1-0.2,0.1c0,0,0,0,0-0.1
			c0-0.1-0.1-0.2-0.2-0.2c-0.1,0-0.2,0-0.2,0.1c0,0,0,0,0,0c-0.1-0.1-0.2,0-0.3,0s-0.1-0.1-0.2-0.2c-0.1-0.1-0.1-0.2,0-0.2
			c0,0,0,0,0.1,0c0.1,0,0.2,0,0.2,0.1l0,0c0,0,0,0.1,0,0.1s0.2,0,0.3,0s0.3,0,0.4,0s0,0.1,0,0.1c0.1,0,0.2,0.1,0.2,0.2c0,0,0,0,0,0
			C35,25,34.9,25.1,34.8,25z"/>
		<path class="st0" d="M21.8,49.7c1.8-2.7,7.3-5.6,12.7-5.6s11.3,3.1,13.6,1.5c0,0-2.4,2-7.1,2s-6.6-2.4-10-2.4s-6.8,2.7-8.3,5
			L21.8,49.7z"/>
		<path class="st0" d="M38.8,43.7c1-0.7,1.9-1.6,2.4-2.7c1.3-2.4,3.1-4.5,5.2-6.2c0,0-2.5,7.8-5,8.1c0,0-0.4,0.2,0.3,0.1
			s4-1.3,5.1-1.5s4-0.8,4.7-1.6s1.1-0.5,1.1-0.5s-3.1,5.2-8.7,5.2C42.2,44.4,40.5,44.1,38.8,43.7z"/>
		<path class="st0" d="M45.5,41c0.4-0.8,0.7-1.6,0.7-2.5c0.5-3.3,1.8-6.3,3.8-9c0,0,0.4,6.1-2.7,9.9c0,0-0.2,0.5,0.2,0.2
			c1.9-2.1,4.1-4,6.5-5.5c0,0,2.2-1.8,2.3-2.4C56.3,31.7,54.6,40.4,45.5,41z"/>
		<path class="st0" d="M50.8,35.2c0.1-0.6,0.2-1.2,0.2-1.8c0-0.8-0.3-3.7-0.3-5c-0.1-1.8,0.3-3.6,1.1-5.2c0,0.7,0.1,1.4,0.3,2
			c0.3,1.1,0.6,2.3,0.7,3.5c0,1.2-0.2,2.4-0.6,3.6c0.4-0.3,0.6-0.6,0.8-1.1c0.9-1.5,1.9-2.8,3.1-4c0.9-0.9,1.6-1.9,2-3.1
			c0.1,2.1-0.5,4.2-1.7,5.9c-2.1,3-3,2.5-4.1,3.7C52.2,33.7,50.9,35.3,50.8,35.2z"/>
		<path class="st0" d="M54,28.3c0-0.8-0.1-1.5-0.4-2.3c-1.4-2.6-2.1-5.5-1.8-8.4c0,0,0.3-0.3,0.9,1.4s1.4,2.2,1.7,3.9
			c0.2,0.8,0.3,1.6,0.3,2.4c0,0,0.2,0.2,0.2,0c0.1-1.6,0.5-3.1,1.2-4.6c0.9-2.1,2.2-4.1,2.1-5.5c0,0,0.6,0,0.5,2.3S58,23.9,54,28.3z
			"/>
		<path class="st0" d="M55.1,21.4c-0.3-0.7-0.7-1.4-1.2-2.1c-0.5-0.5-3.8-5.3-4-7.5c0,0,0.3-0.1,0.6,0.4c0.7,0.8,1.4,1.6,2.2,2.4
			c1.1,1.1,1.8,2.4,2.1,3.9c0,0,0.2,0.2-0.2-3s1-5.2-0.1-7.4c0,0,1.5,0.2,2.4,6.7c-0.1,1.8-0.5,3.5-1.2,5.2
			C55.7,20,55.3,21.4,55.1,21.4z"/>
		<path class="st0" d="M53.9,14.3c-0.7-0.7-1.4-1.3-2.2-1.9c-1-0.6-4.1-3.6-4.6-6c0,0,0.2-0.3,1.2,1c0.8,1,1.5,0.5,3.8,3.4
			c0,0,0.3,0.6,0.5,0.6s-0.1-0.7-0.1-0.7c-0.2-0.8-0.4-1.6-0.5-2.4c-0.3-1.5-0.7-3-1.2-4.4c0,0,3,1.7,3.5,6.6
			C54.1,11.8,54,13.1,53.9,14.3z"/>
		<path class="st0" d="M51.3,9.1c0,0,0.2-4.3-5.4-6.4c0,0,2,4,3.4,5C50,8.1,50.6,8.5,51.3,9.1z"/>
		<path class="st0" d="M36.9,49.7c-1.8-2.7-7.3-5.6-12.7-5.6s-11.3,3.1-13.6,1.5c0,0,2.4,2,7.2,2s6.6-2.4,9.9-2.4s6.8,2.7,8.3,5
			L36.9,49.7z"/>
		<path class="st0" d="M19.8,43.7c-1-0.7-1.9-1.6-2.4-2.7c-1.3-2.4-3.1-4.5-5.2-6.2c0,0,2.4,7.8,5,8.1c0,0,0.4,0.2-0.3,0.1
			s-4-1.3-5.1-1.5s-3.9-0.8-4.7-1.6S6,39.4,6,39.4s3.1,5.2,8.8,5.2C16.5,44.4,18.1,44.1,19.8,43.7z"/>
		<path class="st0" d="M13.1,41c-0.4-0.8-0.7-1.6-0.7-2.5c-0.5-3.3-1.8-6.3-3.8-9c0,0-0.4,6.1,2.6,9.9c0,0,0.2,0.5-0.2,0.2
			c-1.9-2.1-4.1-4-6.5-5.5c0,0-2.2-1.8-2.3-2.4C2.3,31.7,4.1,40.4,13.1,41z"/>
		<path class="st0" d="M7.9,35.2c-0.1-0.6-0.2-1.2-0.2-1.8c0-0.8,0.3-3.7,0.3-5c0.1-1.8-0.3-3.6-1.1-5.2c0,0.7-0.1,1.4-0.3,2
			c-0.3,1.1-0.6,2.3-0.7,3.5c0,1.2,0.2,2.4,0.6,3.6c-0.4-0.3-0.7-0.6-0.8-1.1c-0.8-1.5-1.9-2.8-3.1-4c-0.9-0.9-1.6-1.9-2-3.1
			c-0.1,2.1,0.5,4.2,1.7,5.9c2.1,3,3,2.5,4.1,3.7C6.4,33.7,7.7,35.3,7.9,35.2z"/>
		<path class="st0" d="M4.6,28.3c0-0.8,0.2-1.5,0.4-2.3c1.4-2.6,2-5.5,1.8-8.4c0,0-0.3-0.3-0.9,1.4S4.5,21.3,4.2,23
			C4,23.8,4,24.6,3.9,25.4c0,0-0.2,0.2-0.2,0c-0.1-1.6-0.5-3.1-1.1-4.6c-0.9-2.1-2.2-4.1-2.1-5.5c0,0-0.6,0-0.5,2.3
			S0.7,23.9,4.6,28.3z"/>
		<path class="st0" d="M3.6,21.4c0.3-0.7,0.7-1.4,1.1-2.1c0.5-0.5,3.7-5.3,4-7.5c0,0-0.3-0.1-0.6,0.4c-0.6,0.8-1.3,1.6-2.1,2.4
			c-1.1,1.1-1.8,2.4-2.1,3.9c0,0-0.2,0.2,0.2-3s-1-5.2,0.1-7.4c0,0-1.5,0.2-2.4,6.7C1.9,16.6,2.3,18.4,3,20C3,20,3.4,21.4,3.6,21.4z
			"/>
		<path class="st0" d="M4.8,14.3C5.4,13.6,6.2,13,7,12.4c1-0.6,4.1-3.6,4.6-6c0,0-0.2-0.3-1.2,1c-0.8,1-1.5,0.5-3.8,3.4
			c0,0-0.3,0.6-0.5,0.6s0.1-0.7,0.1-0.7c0.2-0.8,0.3-1.6,0.4-2.4C7,6.8,7.4,5.3,8,3.9c0,0-3.1,1.7-3.5,6.6
			C4.5,11.8,4.6,13.1,4.8,14.3z"/>
		<path class="st0" d="M7.4,9.1c0,0-0.2-4.3,5.4-6.4c0,0-1.9,4-3.4,5C8.7,8.1,8,8.5,7.4,9.1z"/>
	</g>
</g>
</svg>
